<svg xmlns="http://www.w3.org/2000/svg" width="250" height="250" fill="none" viewBox="0 0 250 250">
<!-- SVG cleaned by Antigravity -->
  <path d="m11.92 124.9 17.8-11.03 0.95 4.41c2.52 6.58-0.27 16.09-6 18.71l27.21 44.21c7.37-2.95 14.08-1.79 18.17 4.36l34.81-19.78-2.5-4.21 22.42-12.12-12.88-10.28 31.53-12.99 9 8.82 2.76-13.4 27.58-8.93 1.14 2.12 1.01-1.79 32.6-11.18 0.26 2.05-31.53 18.21-3.48-5.89-24.65 14.04-1.21 4.98-5.78 1.38-0.94-0.72-1.46 2.8 6.36-0.93 0.37 3.54-7.25 2.64c-5.45 1.69-11.3 5.6-15.46 6.67l-1.05-2.26c4.22-4.21 6.72-6.34 12.12-9.26l-11.37-8.84-22.72 8.67c5.1 5.28 9.03 6.34 19.71 8.63l-2.23 1.75c-8.1-1.48-13.2-4.04-18.12-9.31l-52.38 19.02-10.1 1.78-32.13-48.5-2.56 12.63z" fill="#9AF0C2"/>
  <path d="m130.1 171.4c13.01-1.31 23.89-11.49 26.5-21.29l-3.98 0.28c-4.78 8.49-12.2 14.7-24.49 16.25l-7.87 3.75c2.91 0.94 6.56 1.38 9.84 1.01z" fill="#54A56E"/>
  <path d="m157.1 131.7 22.96-11.56 2.68 5.05-22.96 12.45-2.68-5.94z" fill="#98D59D"/>
  <path d="m63.31 172.9 38.08-22.7-1.21-2.46-38.71 22.56 1.84 2.6z" fill="#006E61"/>
  <path d="m71.94 174.7 25.88-14.28-0.6-1.22-25.93 14.27 0.65 1.23z" fill="#006E61"/>
  <path d="m107.1 166.2 21.01-12.83-0.75-2.69-21.83 12.09 1.57 3.43z" fill="#98D59D"/>
  <path d="m71.22 156c6.66 0 12.5-4.27 13.95-8.89l-4.43 0.62-15.92 5.62c1.5 1.74 3.5 2.65 6.4 2.65z" fill="#006E61"/>
  <path d="m14.64 70.75 198.1-67.75 31.17 88.9-0.37 0.05-197 68.86-31.88-90.06z" fill="url(#paint1_linear_304_25171)"/>
  <path d="m23.51 74.9 185.4-63.12 26.82 75.93-56.38 14.91-2.5-6.38-76.11 26.73 1.92 6.71-37.02 12.23c-3.22-6.78-9.33-9.13-16.29-8.07l-16.03-42.67c6.96-2.45 10.88-9.26 8.96-17.07l-18.74 0.8z" fill="url(#paint2_linear_304_25171)"/>
  <path d="m23.48 74.91 130.7-43.82 3.72 9.81-77.09 26.76-1.93-6.68-55.41 13.93z" fill="#006E61"/>
  <path d="m156.8 33.71 35.72-12.3c3.4 7.3 9.63 9.42 17.35 7.7l14.92 43.82c-6.89 3.53-9.88 10.76-9.08 16.73l-37.38 11.46-0.95-4.88-0.73 0.17-75.65 26.21 1.46 6.47-1.56 0.62-0.2-6.74 76.11-26.73 1.67 5.58 57.21-14.71-27.18-75.3-51.71 21.9z" fill="#006E61"/>
  <path d="m184.4 40.41c-13.61-0.35-25.49 11.67-25.69 25.24-0.21 13.21 10.12 22.92 23.2 22.77 13.48-0.15 25.57-12.21 25.87-23.76 0.32-11.8-10.37-23.91-23.38-24.25zm-0.7 45.58c-12.04-0.07-21.5-10.08-21.01-21.88 0.51-11.89 10.48-21.09 22.47-20.49 11.63 0.59 20.35 10.74 19.9 22.43-0.5 11.23-10.12 20.01-21.36 19.94z" fill="url(#paint3_linear_304_25171)"/>
  <path d="m188.1 76.42-0.45 3.53-1.93 0.15-0.27-3.36c-5.29 0.87-9.02-1.59-9.69-4.48l5.4-2.64c0.77 2.46 2.29 3.76 3.96 3.99l-1.02-7.1c-5.19-0.35-10.26-1.52-10.57-7.49-0.23-4.29 3.5-7.25 6.58-7.61l-1.15-3.73 2.4-0.22 0.7 3.46c4.22-0.8 7.82 0.29 8.73 4.04l-4.79 2.2c-0.65-1.65-1.6-2.55-2.91-2.7l1.73 6.78c6.32 0.22 10.15 1.87 10.3 6.95 0.13 4.09-2.43 7.19-7.02 8.23zm-5.49-21.94c-1.95 0.13-4.08 1.63-3.85 3.64 0.2 1.82 1 2.54 4.33 3.11l-0.48-6.75zm3.79 12.43 1.05 6.38c2.21-0.68 3.06-2.43 2.91-4.07-0.2-1.82-1.6-2.31-3.96-2.31z" fill="url(#paint4_linear_304_25171)"/>
  <path d="m76.41 87.84c6.75-5.63 17.86-4.18 21.73 0.67 5.57 6.93 3.07 18.31-5.43 22.53-6.6 3.32-12.46 1.74-15.22-0.55 5.92 2.12 11.32 0.95 15.22-1.76 6.4-4.27 7.71-14.28 3.1-20.89-2.32-3.46-8.55-4.26-12.7-2.93-2.61 0.84-4.39 1.6-6.7 2.93z" fill="#006E61"/>
  <path d="m82.35 86.12c3.28-1.05 4.79 1.72 6.57 7.48 1.93 6.31 3.59 12.01-0.53 14.12-3.47 1.74-5.68-2.47-7.92-9.52-1.92-6.38-1.98-10.74 1.88-12.08zm0.76 1.2c-2.13 0.92-1.83 3.49-0.3 9.45 1.92 7.69 3.38 10.25 5.2 10.01 1.93-0.25 1.86-3.02-0.37-10.72-1.61-6.11-2.16-9.45-4.53-8.74z" fill="#006E61"/>
  <path d="m94.85 81.91 11.37-5.41 12.56 7.69c0.3-5.8-1.36-8.16-6.5-10.09l1.16-0.69 3.47 0.87 2.86-2.02c-1.56 4.32 0.14 9.15 3.18 17.1l2.45-9.33c0.63-2.56 0.08-7.54-4.18-7.92l2.19-1.43 2.77-0.54 5.4 21.3-1.56 5.41-5.6 1.26-18.2-13.1c1.93 6.23 2.94 12.54 9.44 14.9l-12.05 4.76-1.3-1.48c4.76-1.07 4.76-8.07 1.23-16.08l-5.22-3.99-3.47-1.21z" fill="#006E61"/>
  <path d="m134 66.49 13.58-4.21 3.72 10.65-2.33 0.68-3.13-5.49c-2.67-1.75-6.93-2.29-10.48-0.94l3.13 8.98c3.33-0.99 3.83-2.33 3.93-7.01l2.31 0.34 3.07 11.38-2.67 0.87-2.51-3.28-3.73 1.57 2.77 7.68c3.83-0.92 6.16-4.32 6.81-11.48l6.46-0.22 3.5 11.9-26.14 8.08-0.47-1.34 3.6-1.89 3.8-1.95-5.22-17.05v-7.27z" fill="#006E61"/>
  <path d="m147.8 62.21 1.61-0.2 3.87 10.65-1.92 0.75-3.56-11.2z" fill="#006E61"/>
  <path d="m153.1 76.71 2.5-0.4 3.63 12.13-25.51 8.77-0.8-0.9 23.13-8.4-2.95-11.2z" fill="#006E61"/>
  <defs>
    <linearGradient id="paint0_linear_304_25171" x1="124.9" x2="124.9" y1="100.4" y2="206.8" gradientUnits="userSpaceOnUse">
      <stop stop-color="#77B5E0" offset="0"/>
      <stop stop-color="#99D6E8" offset=".5052"/>
      <stop stop-color="#9AF0C2" offset="1"/>
    </linearGradient>
    <linearGradient id="paint1_linear_304_25171" x1="129.3" x2="129.3" y1="3" y2="160.8" gradientUnits="userSpaceOnUse">
      <stop stop-color="#50C996" offset="0"/>
      <stop stop-color="#009A83" offset="1"/>
    </linearGradient>
    <linearGradient id="paint2_linear_304_25171" x1="129.6" x2="129.6" y1="11.78" y2="141.9" gradientUnits="userSpaceOnUse">
      <stop stop-color="#50C996" offset="0"/>
      <stop stop-color="#008670" offset="1"/>
    </linearGradient>
    <linearGradient id="paint3_linear_304_25171" x1="183.3" x2="183.3" y1="40.39" y2="88.43" gradientUnits="userSpaceOnUse">
      <stop stop-color="#00705D" offset="0"/>
      <stop stop-color="#008570" offset="1"/>
    </linearGradient>
    <linearGradient id="paint4_linear_304_25171" x1="184.4" x2="184.4" y1="47.46" y2="80.1" gradientUnits="userSpaceOnUse">
      <stop stop-color="#50C996" offset="0"/>
      <stop stop-color="#36B98D" offset="1"/>
    </linearGradient>
  </defs>
</svg>