<svg xmlns="http://www.w3.org/2000/svg" width="233" height="234" viewBox="0 0 233 234">
<!-- SVG cleaned by Antigravity -->
  <path d="m116.6 4.09c-62.5 0-112.8 50.02-112.8 112.8 0 37.45 18.58 70.92 47.41 91.76 2.84-7.41 4.94-22.38 4.75-30.43-0.21-9.17-1.71-20.28-4.21-29.35-2.73-10.08-2.39-16.68 0.88-27.33 5.52-18.29 1.83-31.25 6.12-41.2 3.1-7.04 11.41-11.5 11.3-17.8-0.07-5.34-2.87-10.69 0-16.78 3.54-7.62 13.61-14.48 20-14.09 5.97 0.37 6.92 5.63 4.94 10.89-2.47 6.83-9.16 14.23-9.3 18.59-0.24 6.8 7.17 8.51 11.58 15.21 4.62 7.05 8.2 19.52 10.08 24.58 2.61 7.3 9.24 9.26 20.18 9.26 11.1 0 23.93-6.53 25.77-13.01 1.5-5.64-3.34-8.4-1.84-14.28 1.71-6.97 8.84-18.63 19.09-18.63 7.21-0.54 7.1 6.33 6.1 9.11-1.05 2.97-6.59 12.82-7.55 15.54-2.1 5.76-0.38 7.89 4.15 7.13 4.51-0.77 16.72-9.85 21.52-16.77 3.41-4.9 5-10.13 10.5-10.22 4.27-0.07 5.06 4.82 4.68 7.89-1.22 10.06-19.53 25.39-29.17 40.81-2.05 3.32-2.51 4.47-2.23 9.68 0.76 17.59 6.6 39.61 20.28 60.07 1.07 1.61 2.04 2.79 3.4 1.93 15.74-19.76 27.09-43 27.09-72.56 0-60.1-51.01-112.8-112.7-112.8z" fill="#EF4133"/>
  <path d="m100.2 187.1c0-26.33-1.84-62.04 14.83-62.31 11.1-0.2 22.94 5.84 26.69 15.43 3.52 9.07 5.25 30.72 7.16 43.55 1.35 9.55 2.35 18.4 2.46 28.7 0.12 7.94-2.88 12.52-15.31 15-6.97 1.43-12.37 1.94-20.58 1.5-11.99-0.63-14.72-8.17-15.25-34.87v-7z" fill="#EF4133"/>
  <path d="m75.89 167.5c5.8-0.38 8.5 30.82 7.73 43.95-0.41 6.79-1.6 11.81-2.91 11.71-1.04-0.07-5.63-1.94-6.53-2.77-2.95-2.85-4.97-22.17-3.57-34.25 1-8.84 2.28-18.4 5.28-18.64z" fill="#EF4133"/>
  <path d="m168.8 170c4.97-1.27 13.35 15.05 16.44 26.07 1.81 6.6 0.91 9.08-1.31 10.85-4.16 3.29-9.9 7.06-11.85 7.06-3.8 0-6.92-14.97-7.48-26.02-0.32-6.76 0.56-17.06 4.2-17.96z" fill="#EF4133"/>
</svg>